<?xml version="1.0" encoding="utf-8"?>
<!-- Generator: Adobe Illustrator 23.0.3, SVG Export Plug-In . SVG Version: 6.00 Build 0)  -->
<svg version="1.1" id="Capa_1" xmlns="http://www.w3.org/2000/svg" xmlns:xlink="http://www.w3.org/1999/xlink" x="0px" y="0px"
	 viewBox="0 0 1200 1200" enable-background="new 0 0 1200 1200" xml:space="preserve">
<path d="M1027.917,260.889c-144.17-208.9-435.454-209.52-435.454-209.52c-87.707,0-161.233,18.433-222.362,46.185l-0.01-0.026
	c0.001,0.008,0.004,0.02,0.006,0.028c-164.44,74.657-238.991,216.884-257.222,250.13c-11.48,20.935-40.929,88.079-55.07,176.92
	l-0.011-0.003c0.002,0.009,0.006,0.016,0.008,0.025c-16.66,104.687-12.057,239.502,68.314,364.434
	c35.804,55.657,80.169,103.17,130.342,141.773l-0.016,0.021c0.006-0.007,0.012-0.012,0.018-0.019
	c158.036,121.591,373.849,154.524,562.558,73.011c2.854-1.233,5.655-2.496,8.459-3.758c0.002,0.005,0.005,0.011,0.008,0.016
	l-0.008-0.016c241.413-108.665,296.251-323.796,312.247-406.687c4.504-23.339,9.003-51.016,10.05-83.301
	c0.001,0,0.002,0,0.004-0.001l-0.004,0C1152.487,526.387,1131.961,411.646,1027.917,260.889z M220.07,878.529l-1.451,2.789
	c-0.12-0.486-0.279-0.956-0.375-1.451c0,0-51.465-65.845-76.932-173.357l0.489,0.068l297.511-64.327
	c13.738-2.97,27.748-4.663,41.803-4.586c7.449,0.041,17.029-0.708,27.144-3.575c0.673,1.811,1.411,3.589,2.186,5.347
	c-7.522,4.741-16.202,11.223-24.074,19.671c-6.368,6.835-13.147,13.257-20.496,19.023
	c-49.326,38.698-218.426,171.534-229.857,182.849C222.624,874.24,220.07,878.529,220.07,878.529z M128.183,559.069
	c0.356-6.295,0.966-14.206-0.597-18.665c0,0,6.252,2.942,12.321-33.468c1.663-9.981,5.537-25.121,11.356-43.064l288.433,92.453
	c13.385,4.29,26.366,9.823,38.504,16.912c6.438,3.759,15.119,7.901,25.325,10.471c-0.551,3.287-0.94,6.627-1.155,10.016
	c-8.865,0.74-19.563,2.491-30.451,6.364c-8.802,3.131-17.777,5.706-26.957,7.435c-61.61,11.608-272.902,51.557-288.262,56.33
	c-17.998,5.593-22.241,8.222-22.241,8.222l-0.075,0.053C128.639,637.691,125.886,599.802,128.183,559.069z M697.604,606.562
	c8.868-0.714,19.572-2.435,30.472-6.278c8.81-3.106,17.793-5.656,26.978-7.359c61.643-11.434,273.047-50.784,288.42-55.514
	c7.854-2.416,13.089-4.276,16.499-5.606c-0.059,0.27-0.088,0.51-0.151,0.784c0,0,2.794,45.697,1.627,58.569
	c-1.168,12.872,3.614,13.976,3.614,13.976s-5.516,6.252-4.781,28.687c0.736,22.435-6.62,63.259-6.62,63.259s0.507,0.975,1.116,2.657
	L763.232,630.97c-13.68-3.227-27.056-7.724-39.712-13.838c-6.715-3.244-15.698-6.692-26.077-8.453
	C697.505,607.976,697.557,607.27,697.604,606.562z M1050.72,496.27c0,0,0.065,0.033,0.154,0.082l-290.073,61.86
	c-13.747,2.932-27.761,4.584-41.816,4.468c-7.447-0.061-17.027,0.66-27.148,3.497c-1.169-3.173-2.507-6.263-3.986-9.272
	c7.319-5.048,15.722-11.88,23.236-20.645c6.081-7.092,12.588-13.788,19.694-19.853c47.686-40.701,211.159-180.404,222.113-192.182
	c5.377-5.781,8.901-9.893,11.201-12.741C995.618,354.847,1029.87,416.406,1050.72,496.27z M879.334,217.491
	c0,0-1.472,9.195,12.504,17.286c5.598,3.241,25.253,19.203,49.579,47.817l-223,200.871c-10.444,9.407-21.758,17.84-33.991,24.761
	c-6.488,3.671-14.435,9.09-21.791,16.615c-2.581-2.153-5.269-4.181-8.065-6.063c3.819-8.029,7.684-18.146,9.814-29.492
	c1.724-9.181,4.016-18.233,7.141-27.037c20.975-59.081,92.79-261.77,96.395-277.446c2.213-9.624,3.224-15.55,3.69-19.035
	c4.329,1.453,44.702,15.532,92.645,50.62C864.255,216.388,873.081,224.111,879.334,217.491z M735.162,153.865
	c0,0,0.819-0.039,2.22-0.012L644.357,439.89c-4.347,13.367-9.935,26.324-17.075,38.432c-3.787,6.422-7.966,15.087-10.579,25.283
	c-3.284-0.565-6.622-0.967-10.01-1.196c-0.702-8.869-2.407-19.576-6.235-30.482c-3.094-8.815-5.63-17.801-7.321-26.989
	c-11.347-61.659-50.398-273.119-55.106-288.499c-5.304-17.327-7.915-21.915-8.109-22.244c0.741,0.058,1.461,0.094,2.225,0.177
	C532.147,134.372,641.378,121.132,735.162,153.865z M388.711,177.035c8.559-5.136,5.329-13.768,4.842-14.938
	c0.554,1.238,5.397,10.308,25.316,2.065c21.331-8.827,71.717-21.331,76.499-22.803l63.064,297.781
	c2.912,13.751,4.545,27.767,4.409,41.822c-0.072,7.446,0.636,17.026,3.458,27.15c-2.078,0.762-4.11,1.616-6.119,2.513
	c-4.774-7.503-11.293-16.155-19.777-23.991c-6.863-6.339-13.314-13.089-19.112-20.414
	c-38.911-49.158-172.478-217.681-183.842-229.063c-13.317-13.337-17.617-15.872-17.617-15.872l-1.177-0.605
	c0.188-0.081,0.355-0.167,0.546-0.247C319.2,220.433,379.517,182.552,388.711,177.035z M234.243,305.023
	c52.961-60.684,55.903-60.316,55.903-60.316s0.525-1.198,1.752-3.096l0.794,2.212L487.914,477.36
	c9.015,10.784,17.024,22.402,23.488,34.883c3.429,6.62,8.551,14.762,15.8,22.392c-3.143,3.497-6.036,7.222-8.654,11.147
	c-8.046-3.786-18.182-7.61-29.541-9.693c-9.189-1.685-18.25-3.939-27.067-7.026c-59.17-20.724-262.162-91.679-277.852-95.217
	c-11.334-2.556-17.565-3.475-20.687-3.805C179.965,387.829,204.274,339.363,234.243,305.023z M337.958,992.96
	c-5.517-5.517-25.929-23.722-34.204-24.274c0,0-24.825-17.102-39.721-33.1c-14.895-15.999-18.757-23.17-18.757-23.17
	s-3.218-1.765-7.451-5l4.664-1.651l234.379-194.209c10.823-8.968,22.476-16.927,34.985-23.337
	c6.633-3.399,14.794-8.484,22.453-15.697c1.827,1.656,3.732,3.226,5.681,4.741c-4.366,7.752-8.924,17.588-11.832,28.773
	c-2.351,9.041-5.259,17.914-8.982,26.482c-24.985,57.5-110.558,254.776-115.232,270.166c-5.476,18.034-5.683,23.021-5.683,23.021
	l0.009,0.561c-0.058-0.074-0.119-0.132-0.177-0.206C398.09,1026.061,343.475,998.477,337.958,992.96z M433.949,1039.301
	c0,0-1.523,0.476-4,0.79l0.984-1.089l113.807-282.31c5.255-13.036,11.721-25.579,19.675-37.167
	c4.218-6.144,8.978-14.498,12.285-24.485c4.804,1.174,9.747,1.988,14.8,2.423c0.538,8.88,2.046,19.615,5.671,30.588
	c2.93,8.871,5.301,17.902,6.822,27.119c10.206,61.858,45.347,274.002,49.771,289.467c3.478,12.16,5.757,18.08,6.883,20.67
	C651.214,1066.535,526.265,1081.745,433.949,1039.301z M807.983,1020.544c-18.205,10.482-12.688,14.343-12.688,14.343
	s-6.62-5.517-19.309,0c-12.689,5.517-48.547,20.963-77.787,24.825c0,0-0.403,1.93-2.6,4.11l0.541-3.321l-57.555-298.895
	c-2.658-13.802-4.032-27.846-3.636-41.897c0.21-7.45-0.322-17.051-2.962-27.235c4.635-1.603,9.11-3.54,13.399-5.791
	c5.239,7.186,12.293,15.409,21.255,22.693c7.25,5.892,14.115,12.221,20.365,19.165c41.942,46.599,185.898,206.339,197.96,216.979
	c12.262,10.817,17.23,13.945,18.333,14.585c-4.459,2.067-7.599,3.063-7.599,3.063S826.189,1010.062,807.983,1020.544z
	 M927.178,933.9L719.612,715.316c-9.679-10.193-18.406-21.281-25.647-33.328c-3.842-6.392-9.471-14.198-17.193-21.357
	c3.221-4.073,6.128-8.403,8.677-12.963c8.319,3.143,18.724,6.16,30.212,7.345c9.293,0.959,18.503,2.494,27.535,4.881
	c60.614,16.017,268.548,70.823,284.467,73.12c8.783,1.267,14.503,1.811,18.126,2.038c-0.652,0.588-1.333,1.172-2.058,1.749
	C1043.732,736.8,1008.802,857.767,927.178,933.9z"/>
</svg>
